<svg width="152" height="40" viewBox="0 0 152 40" fill="none" xmlns="http://www.w3.org/2000/svg">
<path d="M20.4212 40C31.6995 40 40.8424 31.0457 40.8424 20C40.8424 8.95431 31.6995 0 20.4212 0C9.14288 0 0 8.95431 0 20C0 31.0457 9.14288 40 20.4212 40Z" fill="white"/>
<path d="M20.4216 33.3816C27.9808 33.3816 34.1088 27.3779 34.1088 19.972C34.1088 12.5661 27.9808 6.56238 20.4216 6.56238C12.8623 6.56238 6.73431 12.5661 6.73431 19.972C6.73431 27.3779 12.8623 33.3816 20.4216 33.3816Z" fill="#FDB515"/>
<path d="M29.48 18.6542C30.3028 16.6929 29.7037 14.5935 28.142 13.9652C26.5803 13.3368 24.6474 14.4175 23.8246 16.3789C23.0019 18.3402 23.601 20.4396 25.1627 21.0679C26.7244 21.6963 28.6573 20.6156 29.48 18.6542Z" fill="white"/>
<path d="M20.4541 36.5951C22.6218 36.5951 24.3791 34.7319 24.3791 32.4335C24.3791 30.1351 22.6218 28.2719 20.4541 28.2719C18.2864 28.2719 16.5292 30.1351 16.5292 32.4335C16.5292 34.7319 18.2864 36.5951 20.4541 36.5951Z" fill="white"/>
<path d="M15.8128 21.0655C17.3745 20.4372 17.9735 18.3378 17.1508 16.3765C16.3281 14.4151 14.3951 13.3344 12.8334 13.9628C11.2717 14.5911 10.6727 16.6905 11.4954 18.6518C12.3181 20.6132 14.2511 21.6939 15.8128 21.0655Z" fill="white"/>
<path d="M27.3791 32.8727C31.6141 30.6494 34.6186 26.4645 35.1194 21.5555L37.4896 24.2225C36.1686 29.4864 32.3724 33.8022 27.3839 35.918C27.4316 35.4976 27.4555 35.0259 27.4555 34.4888C27.4507 33.9469 27.4268 33.4051 27.3791 32.8727ZM15.6472 33.8255C17.1399 34.3206 18.7328 34.5868 20.3972 34.5868C22.1332 34.5868 23.7928 34.2973 25.3428 33.7601C25.0185 35.0259 24.5129 36.1328 23.8691 37.0016C22.7484 37.2211 21.5895 37.3379 20.402 37.3379C19.286 37.3379 18.1987 37.2351 17.1399 37.0436C16.4866 36.1795 15.9763 35.0773 15.6472 33.8255ZM13.4964 32.9147C9.19466 30.6915 6.14722 26.4505 5.66554 21.4761L3.35254 24.4234C4.72603 29.6312 8.52699 33.8816 13.4964 35.96C13.4487 35.5303 13.4248 35.0446 13.4248 34.4934C13.4248 33.961 13.4487 33.4332 13.4964 32.9147ZM32.277 11.4528L33.9557 9.09875C32.7634 7.69287 31.347 6.46914 29.7589 5.49296L26.9261 7.08567C29.0436 8.10389 30.8796 9.61253 32.277 11.4528ZM11.2263 5.37152C9.56664 6.36638 8.08346 7.62281 6.84827 9.08474L8.74159 11.1632C10.1151 9.44438 11.8796 8.0385 13.9017 7.06699L11.2263 5.37152Z" fill="#141E35"/>
<path d="M10.6588 19.9858C10.6588 15.642 13.6204 11.9755 17.6741 10.8125C17.8553 10.3127 18.0842 9.87835 18.3417 9.52338C13.3247 10.4715 9.53802 14.7966 9.53802 19.9858C9.53802 23.6616 11.4361 26.9031 14.3262 28.8181C14.4549 28.4538 14.5932 28.1035 14.7459 27.7625C12.2707 26.0297 10.6588 23.1899 10.6588 19.9858Z" fill="#141E35"/>
<path d="M12.58 16.7913L13.4051 17.0015C14.149 15.32 15.4987 13.9562 17.1917 13.1855C17.2156 12.8632 17.2489 12.5456 17.3014 12.242C15.1696 13.0687 13.4623 14.7175 12.58 16.7913Z" fill="#141E35"/>
<path d="M12.8771 21.1676H12.0282C12.3573 23.3909 13.5781 25.3292 15.3284 26.6183C15.4715 26.3755 15.6193 26.1419 15.7767 25.9177C14.2601 24.7781 13.1966 23.0966 12.8771 21.1676Z" fill="#141E35"/>
<path d="M27.4508 17.0292L28.2711 16.819C27.2887 14.479 25.2475 12.6714 22.7294 11.9755C22.7914 12.265 22.8439 12.5686 22.882 12.8863C24.9423 13.5682 26.6019 15.0862 27.4508 17.0292Z" fill="#141E35"/>
<path d="M28.9152 18.9394L28.0282 18.0426L25.1142 18.5003L24.666 19.8128L26.0061 20.6909L28.4669 19.8128L28.9152 18.9394Z" fill="#141E35"/>
<path d="M12.0468 18.9394L12.929 18.0426L15.8477 18.5003L16.2912 19.8128L14.9511 20.6909L12.495 19.8128L12.0468 18.9394Z" fill="#141E35"/>
<path d="M28.5007 22.5034C28.639 22.0737 28.7487 21.6253 28.8155 21.1676H27.9666C27.9237 21.4245 27.8664 21.672 27.7997 21.9196C28.0477 22.1158 28.2814 22.3073 28.5007 22.5034Z" fill="#141E35"/>
<path d="M25.8107 25.278C25.5913 25.4882 25.3624 25.6937 25.1191 25.8759C25.2765 26.1001 25.4291 26.3336 25.5722 26.5765C25.949 26.2916 26.3019 25.9786 26.6262 25.6377C26.3591 25.5302 26.0873 25.4088 25.8107 25.278Z" fill="#141E35"/>
<path d="M30.1836 19.9863C30.1836 21.2334 29.9356 22.4197 29.4968 23.5127C29.8259 23.8957 30.0739 24.2647 30.2361 24.5963C30.9228 23.1997 31.3091 21.6397 31.3091 19.9863C31.3091 14.4842 27.0551 9.95825 21.5897 9.38843C21.8616 9.72005 22.1048 10.1311 22.3051 10.6028C26.7928 11.4622 30.1836 15.3342 30.1836 19.9863Z" fill="#141E35"/>
<path d="M27.9468 26.0718C27.4269 26.6884 26.826 27.2442 26.1679 27.7159C26.3205 28.0522 26.4636 28.4072 26.5876 28.7715C27.6082 28.0849 28.5 27.2255 29.2297 26.2493C28.8624 26.254 28.4285 26.1933 27.9468 26.0718Z" fill="#141E35"/>
<path d="M21.3557 18.6829C21.3462 18.6829 21.3414 18.6782 21.3366 18.6735L20.421 9.31342H19.5673L18.7852 18.7389H18.7899C18.7899 18.7576 18.7852 18.7763 18.7852 18.795C18.7899 18.9538 18.8042 19.1032 18.8328 19.248C18.8472 19.4068 18.8948 19.5703 18.9711 19.7338C19.1333 20.1448 19.3956 20.4531 19.7056 20.5979C19.7771 20.6539 19.8534 20.7053 19.9297 20.7567C19.944 20.766 19.9631 20.7753 19.9774 20.7847V20.7894L29.4774 25.9038L29.9734 25.2265L21.3557 18.6829Z" fill="#141E35"/>
<path d="M22.5675 31.4946C21.8283 31.4946 21.2035 30.9995 21.0223 30.3316L24.5371 29.0145L23.6977 26.9687L20.4214 28.2671L17.1403 26.9734L16.3057 29.0145L19.7871 30.3596C19.5963 31.0135 18.9811 31.4946 18.2514 31.4946C18.2038 31.4946 18.1513 31.4899 18.1036 31.4853L17.393 32.4614C17.6601 32.5502 17.9462 32.5969 18.2467 32.5969C19.129 32.5969 19.9111 32.1859 20.4071 31.546C20.9031 32.1812 21.6852 32.5969 22.5675 32.5969C22.9013 32.5969 23.2161 32.5362 23.5117 32.4288L22.8155 31.4759C22.7344 31.4899 22.6533 31.4946 22.5675 31.4946Z" fill="#141E35"/>
<path d="M31.3569 11.9053L30.2171 13.1758C31.6097 15.0954 32.4252 17.4401 32.4252 19.9717C32.4252 24.1193 30.2314 27.7671 26.9169 29.8596C27.0648 30.4107 27.184 30.9852 27.2746 31.5784C31.3569 29.257 34.1039 24.9273 34.1039 19.9717C34.1135 16.945 33.0833 14.1519 31.3569 11.9053Z" fill="#141E35"/>
<path d="M8.4178 19.9725C8.4178 17.4457 9.23331 15.1056 10.6211 13.186L9.4813 11.9155C7.7549 14.1575 6.73431 16.9506 6.73431 19.9725C6.73431 24.9608 9.51469 29.3139 13.6447 31.6213C13.7353 31.0281 13.8498 30.4536 13.9976 29.9071C10.6402 27.8193 8.4178 24.1528 8.4178 19.9725Z" fill="#141E35"/>
<path d="M20.4213 6.56238C18.3182 6.56238 16.3247 7.02945 14.5458 7.85617L15.3852 9.29474C16.9161 8.59881 18.6234 8.21114 20.4213 8.21114C22.2145 8.21114 23.9171 8.59881 25.4479 9.29007L26.2873 7.85149C24.5084 7.02945 22.5197 6.56238 20.4213 6.56238Z" fill="#141E35"/>
<path d="M53.8716 28.4353H50.3902V14.6193H45.8262V11.8309H58.407V14.6193H53.8716V28.4353Z" fill="#141E35"/>
<path d="M63.2613 13.6479C63.2613 14.6194 62.4982 15.3667 61.4824 15.3667C60.438 15.3667 59.6797 14.6194 59.6797 13.6245C59.6797 12.6017 60.4427 11.859 61.4824 11.859C62.5221 11.859 63.2613 12.6017 63.2613 13.6479ZM63.08 28.4354H59.8514V16.9127H63.08V28.4354Z" fill="#141E35"/>
<path d="M68.5315 16.8101V18.2533C69.2707 16.9829 70.2579 16.4131 71.7602 16.4131C73.2863 16.4131 74.4022 17.0857 74.965 18.3281C75.7519 17.0063 76.844 16.4131 78.5227 16.4131C79.715 16.4131 80.707 16.7867 81.3699 17.4827C82.0805 18.2533 82.3094 19.052 82.3094 20.7942V28.3374H79.0807V21.3921C79.0807 19.8227 78.4941 19.0754 77.278 19.0754C76.081 19.0754 75.399 19.9208 75.399 21.3921V28.3374H72.1703V21.4902C72.1703 19.8974 71.5599 19.0754 70.3915 19.0754C69.1706 19.0754 68.5363 19.8974 68.5363 21.4902V28.3374H65.3076V16.8101H68.5315Z" fill="#141E35"/>
<path d="M119.156 27.2064C117.806 28.4021 116.409 28.9253 114.63 28.9253C111.043 28.9253 108.401 26.3377 108.401 22.8253C108.401 19.1915 110.996 16.5992 114.654 16.5992C116.409 16.5992 117.858 17.1971 119.356 18.5142L117.196 20.4292C116.485 19.7333 115.722 19.4063 114.782 19.4063C113.004 19.4063 111.682 20.8262 111.682 22.7179C111.682 24.6842 113.032 26.1041 114.911 26.1041C115.751 26.1041 116.361 25.8566 117.2 25.1326L119.156 27.2064Z" fill="#141E35"/>
<path d="M129.194 17.0011H132.423V28.5285H129.194V26.9358C128.102 28.3043 126.828 28.9255 125.102 28.9255C121.797 28.9255 119.432 26.4126 119.432 22.9003C119.432 19.2664 121.921 16.6041 125.355 16.6041C126.957 16.6041 128.049 17.1506 129.194 18.4724V17.0011ZM122.889 22.8489C122.889 24.8666 124.239 26.3846 125.989 26.3846C127.792 26.3846 129.242 24.7405 129.242 22.7508C129.242 20.7097 127.921 19.2664 126.013 19.2664C124.186 19.2664 122.889 20.733 122.889 22.8489Z" fill="#141E35"/>
<path d="M134.574 28.6361V12.0317H137.803V28.6361H134.574Z" fill="#141E35"/>
<path d="M96.1356 23.6473H86.4353C86.5736 24.4834 86.9503 25.1513 87.556 25.6464C88.1665 26.1415 88.939 26.3891 89.8833 26.3891C91.0136 26.3891 91.9817 26.0014 92.7925 25.2307L95.3391 26.4031C94.7049 27.2858 93.9466 27.9351 93.0595 28.3601C92.1725 28.7805 91.1233 28.9953 89.9072 28.9953C88.0186 28.9953 86.483 28.4115 85.2955 27.2438C84.108 26.0761 83.5166 24.6142 83.5166 22.8627C83.5166 21.0644 84.108 19.5698 85.2907 18.3835C86.4734 17.1971 87.9566 16.5992 89.745 16.5992C91.6383 16.5992 93.1835 17.1924 94.371 18.3835C95.5585 19.5698 96.1499 21.1392 96.1499 23.0915L96.1356 23.6473ZM93.1168 21.3167C92.9165 20.6581 92.5254 20.1256 91.9388 19.7146C91.3522 19.3036 90.6702 19.0981 89.8929 19.0981C89.0487 19.0981 88.3095 19.3316 87.6752 19.7893C87.2746 20.0789 86.9074 20.588 86.5688 21.3167H93.1168Z" fill="#141E35"/>
<path d="M151.985 23.7553H142.285C142.423 24.5913 142.8 25.2592 143.406 25.7543C144.016 26.2494 144.789 26.497 145.733 26.497C146.863 26.497 147.831 26.1093 148.642 25.3386L151.189 26.511C150.554 27.3937 149.796 28.043 148.909 28.468C148.022 28.8884 146.973 29.1032 145.757 29.1032C143.868 29.1032 142.333 28.5194 141.145 27.3517C139.958 26.184 139.366 24.7221 139.366 22.9706C139.366 21.1724 139.958 19.6777 141.14 18.4914C142.323 17.305 143.806 16.7072 145.595 16.7072C147.488 16.7072 149.033 17.3003 150.221 18.4914C151.408 19.6777 151.999 21.2471 151.999 23.1994L151.985 23.7553ZM148.966 21.4246C148.766 20.766 148.375 20.2335 147.788 19.8225C147.202 19.4115 146.52 19.206 145.742 19.206C144.898 19.206 144.159 19.4395 143.525 19.8973C143.124 20.1868 142.757 20.6959 142.418 21.4246H148.966Z" fill="#141E35"/>
<path d="M98.3051 24.9465C98.4386 25.0492 99.3114 25.6751 100.909 26.1889C101.596 26.4084 102.612 26.4504 103.384 26.3056C103.761 26.2356 104.166 26.1375 104.472 25.8993C104.605 25.7965 104.72 25.6564 104.767 25.4929C104.843 25.2267 104.729 24.9324 104.534 24.7316C104.271 24.4607 103.885 24.3252 103.522 24.2272C102.716 24.0076 101.958 23.8442 101.267 23.7087C100.485 23.5546 99.7501 23.4051 99.0872 23.0642C98.2336 22.6204 97.5897 22.13 97.2988 21.1725C97.0318 20.2944 97.213 19.1828 97.7996 18.3561C98.8631 16.8568 100.752 16.5205 101.782 16.4504C105.029 16.2402 107.39 18.2206 107.486 18.3047L105.683 20.3271L105.688 20.3318C105.673 20.3178 104.061 18.9306 102.015 19.0614C100.818 19.1408 100.361 19.5564 100.222 19.7293C100.098 19.8881 100.022 20.0702 100.036 20.229C100.065 20.5373 100.232 20.8549 101.748 21.1865C102.678 21.392 103.26 21.5135 104.281 21.8264C106.136 22.3916 107.8 23.5733 107.528 25.7218C107.223 28.1085 104.643 28.996 102.502 28.996C101.715 28.996 100.785 28.8839 100.06 28.6503C97.8187 27.931 96.7647 27.1837 96.6025 27.0623L98.3051 24.9465Z" fill="#141E35"/>
</svg>
